<mxfile host="Electron" agent="Mozilla/5.0 (Windows NT 10.0; Win64; x64) AppleWebKit/537.36 (KHTML, like Gecko) draw.io/24.7.17 Chrome/128.0.6613.36 Electron/32.0.1 Safari/537.36" version="24.7.17">
  <diagram id="R2lEEEUBdFMjLlhIrx00" name="Page-1">
    <mxGraphModel dx="1488" dy="599" grid="1" gridSize="10" guides="1" tooltips="1" connect="1" arrows="1" fold="1" page="1" pageScale="1" pageWidth="1100" pageHeight="850" math="0" shadow="0" extFonts="Permanent Marker^https://fonts.googleapis.com/css?family=Permanent+Marker">
      <root>
        <mxCell id="0" />
        <mxCell id="1" parent="0" />
        <mxCell id="XRtFIheSeocgoj4U0Oa9-1" value="&lt;font style=&quot;font-size: 8px;&quot;&gt;Peliculas&lt;/font&gt;" style="rounded=0;whiteSpace=wrap;html=1;" parent="1" vertex="1">
          <mxGeometry x="450" y="250" width="95" height="45" as="geometry" />
        </mxCell>
        <mxCell id="XRtFIheSeocgoj4U0Oa9-3" value="&lt;font style=&quot;font-size: 8px;&quot;&gt;Actores&lt;/font&gt;" style="rounded=0;whiteSpace=wrap;html=1;" parent="1" vertex="1">
          <mxGeometry x="730" y="250" width="90" height="45" as="geometry" />
        </mxCell>
        <mxCell id="XRtFIheSeocgoj4U0Oa9-7" value="&lt;font style=&quot;font-size: 8px;&quot;&gt;Copias&lt;/font&gt;" style="rounded=0;whiteSpace=wrap;html=1;" parent="1" vertex="1">
          <mxGeometry x="462.5" y="540" width="70" height="30" as="geometry" />
        </mxCell>
        <mxCell id="XRtFIheSeocgoj4U0Oa9-8" value="&lt;span style=&quot;font-size: 8px;&quot;&gt;Socios&lt;/span&gt;" style="rounded=0;whiteSpace=wrap;html=1;" parent="1" vertex="1">
          <mxGeometry x="900" y="570" width="70" height="30" as="geometry" />
        </mxCell>
        <mxCell id="XRtFIheSeocgoj4U0Oa9-11" value="&lt;font style=&quot;font-size: 8px;&quot;&gt;Generar&lt;/font&gt;" style="shape=rhombus;perimeter=rhombusPerimeter;whiteSpace=wrap;html=1;align=center;" parent="1" vertex="1">
          <mxGeometry x="462.5" y="460" width="70" height="40" as="geometry" />
        </mxCell>
        <mxCell id="XRtFIheSeocgoj4U0Oa9-13" value="&lt;font style=&quot;font-size: 8px;&quot;&gt;Alquilar&lt;/font&gt;" style="shape=rhombus;perimeter=rhombusPerimeter;whiteSpace=wrap;html=1;align=center;" parent="1" vertex="1">
          <mxGeometry x="660" y="535" width="80" height="40" as="geometry" />
        </mxCell>
        <mxCell id="XRtFIheSeocgoj4U0Oa9-14" value="&lt;font style=&quot;font-size: 8px;&quot;&gt;Producir&lt;/font&gt;" style="shape=rhombus;perimeter=rhombusPerimeter;whiteSpace=wrap;html=1;align=center;" parent="1" vertex="1">
          <mxGeometry x="110" y="260" width="80" height="40" as="geometry" />
        </mxCell>
        <mxCell id="XRtFIheSeocgoj4U0Oa9-15" value="&lt;font style=&quot;font-size: 8px;&quot;&gt;Dirigir&lt;/font&gt;" style="shape=rhombus;perimeter=rhombusPerimeter;whiteSpace=wrap;html=1;align=center;" parent="1" vertex="1">
          <mxGeometry x="330" y="395" width="80" height="40" as="geometry" />
        </mxCell>
        <mxCell id="XRtFIheSeocgoj4U0Oa9-52" value="&lt;font style=&quot;font-size: 8px;&quot;&gt;VHS&lt;/font&gt;" style="whiteSpace=wrap;html=1;align=center;" parent="1" vertex="1">
          <mxGeometry x="390" y="630" width="60" height="30" as="geometry" />
        </mxCell>
        <mxCell id="XRtFIheSeocgoj4U0Oa9-53" value="&lt;font style=&quot;font-size: 8px;&quot;&gt;DVD&lt;/font&gt;" style="whiteSpace=wrap;html=1;align=center;" parent="1" vertex="1">
          <mxGeometry x="540" y="630" width="60" height="30" as="geometry" />
        </mxCell>
        <mxCell id="z_mEyN4N-O0lo0nMOTQI-7" value="F.Estreno" style="ellipse;whiteSpace=wrap;html=1;align=center;" parent="1" vertex="1">
          <mxGeometry x="450" y="200" width="50" height="20" as="geometry" />
        </mxCell>
        <mxCell id="z_mEyN4N-O0lo0nMOTQI-8" value="Año" style="ellipse;whiteSpace=wrap;html=1;align=center;" parent="1" vertex="1">
          <mxGeometry x="490" y="160" width="30" height="20" as="geometry" />
        </mxCell>
        <mxCell id="z_mEyN4N-O0lo0nMOTQI-9" value="Mes" style="ellipse;whiteSpace=wrap;html=1;align=center;" parent="1" vertex="1">
          <mxGeometry x="455" y="160" width="30" height="20" as="geometry" />
        </mxCell>
        <mxCell id="z_mEyN4N-O0lo0nMOTQI-10" value="Día" style="ellipse;whiteSpace=wrap;html=1;align=center;" parent="1" vertex="1">
          <mxGeometry x="420" y="160" width="30" height="20" as="geometry" />
        </mxCell>
        <mxCell id="z_mEyN4N-O0lo0nMOTQI-11" value="" style="endArrow=none;html=1;rounded=0;exitX=0.5;exitY=1;exitDx=0;exitDy=0;entryX=1;entryY=0;entryDx=0;entryDy=0;" parent="1" source="z_mEyN4N-O0lo0nMOTQI-8" target="z_mEyN4N-O0lo0nMOTQI-7" edge="1">
          <mxGeometry relative="1" as="geometry">
            <mxPoint x="700" y="160" as="sourcePoint" />
            <mxPoint x="860" y="160" as="targetPoint" />
          </mxGeometry>
        </mxCell>
        <mxCell id="z_mEyN4N-O0lo0nMOTQI-12" value="" style="endArrow=none;html=1;rounded=0;exitX=0.5;exitY=1;exitDx=0;exitDy=0;entryX=0.5;entryY=0;entryDx=0;entryDy=0;" parent="1" source="z_mEyN4N-O0lo0nMOTQI-9" target="z_mEyN4N-O0lo0nMOTQI-7" edge="1">
          <mxGeometry relative="1" as="geometry">
            <mxPoint x="700" y="160" as="sourcePoint" />
            <mxPoint x="860" y="160" as="targetPoint" />
          </mxGeometry>
        </mxCell>
        <mxCell id="z_mEyN4N-O0lo0nMOTQI-13" value="" style="endArrow=none;html=1;rounded=0;exitX=0.5;exitY=1;exitDx=0;exitDy=0;entryX=0;entryY=0;entryDx=0;entryDy=0;" parent="1" source="z_mEyN4N-O0lo0nMOTQI-10" target="z_mEyN4N-O0lo0nMOTQI-7" edge="1">
          <mxGeometry relative="1" as="geometry">
            <mxPoint x="700" y="160" as="sourcePoint" />
            <mxPoint x="860" y="160" as="targetPoint" />
          </mxGeometry>
        </mxCell>
        <mxCell id="z_mEyN4N-O0lo0nMOTQI-14" value="F.Naci" style="ellipse;whiteSpace=wrap;html=1;align=center;" parent="1" vertex="1">
          <mxGeometry x="845" y="180" width="50" height="20" as="geometry" />
        </mxCell>
        <mxCell id="z_mEyN4N-O0lo0nMOTQI-15" value="Año" style="ellipse;whiteSpace=wrap;html=1;align=center;" parent="1" vertex="1">
          <mxGeometry x="895" y="150" width="30" height="20" as="geometry" />
        </mxCell>
        <mxCell id="z_mEyN4N-O0lo0nMOTQI-16" value="Mes" style="ellipse;whiteSpace=wrap;html=1;align=center;" parent="1" vertex="1">
          <mxGeometry x="855" y="150" width="30" height="20" as="geometry" />
        </mxCell>
        <mxCell id="z_mEyN4N-O0lo0nMOTQI-17" value="Día" style="ellipse;whiteSpace=wrap;html=1;align=center;" parent="1" vertex="1">
          <mxGeometry x="820" y="150" width="30" height="20" as="geometry" />
        </mxCell>
        <mxCell id="z_mEyN4N-O0lo0nMOTQI-18" value="" style="endArrow=none;html=1;rounded=0;exitX=0.5;exitY=1;exitDx=0;exitDy=0;entryX=1;entryY=0;entryDx=0;entryDy=0;" parent="1" target="z_mEyN4N-O0lo0nMOTQI-14" edge="1">
          <mxGeometry relative="1" as="geometry">
            <mxPoint x="905" y="170" as="sourcePoint" />
            <mxPoint x="1260" y="150" as="targetPoint" />
          </mxGeometry>
        </mxCell>
        <mxCell id="z_mEyN4N-O0lo0nMOTQI-19" value="" style="endArrow=none;html=1;rounded=0;exitX=0.5;exitY=1;exitDx=0;exitDy=0;entryX=0.5;entryY=0;entryDx=0;entryDy=0;" parent="1" source="z_mEyN4N-O0lo0nMOTQI-16" target="z_mEyN4N-O0lo0nMOTQI-14" edge="1">
          <mxGeometry relative="1" as="geometry">
            <mxPoint x="1100" y="150" as="sourcePoint" />
            <mxPoint x="1260" y="150" as="targetPoint" />
          </mxGeometry>
        </mxCell>
        <mxCell id="z_mEyN4N-O0lo0nMOTQI-20" value="" style="endArrow=none;html=1;rounded=0;exitX=0.5;exitY=1;exitDx=0;exitDy=0;entryX=0;entryY=0;entryDx=0;entryDy=0;" parent="1" source="z_mEyN4N-O0lo0nMOTQI-17" target="z_mEyN4N-O0lo0nMOTQI-14" edge="1">
          <mxGeometry relative="1" as="geometry">
            <mxPoint x="1100" y="150" as="sourcePoint" />
            <mxPoint x="1260" y="150" as="targetPoint" />
          </mxGeometry>
        </mxCell>
        <mxCell id="z_mEyN4N-O0lo0nMOTQI-53" value="" style="group" parent="1" vertex="1" connectable="0">
          <mxGeometry x="810" y="650" width="205" height="120" as="geometry" />
        </mxCell>
        <mxCell id="XRtFIheSeocgoj4U0Oa9-10" value="&lt;font style=&quot;font-size: 8px;&quot;&gt;Alquileres&lt;/font&gt;" style="shape=ext;margin=3;double=1;whiteSpace=wrap;html=1;align=center;" parent="z_mEyN4N-O0lo0nMOTQI-53" vertex="1">
          <mxGeometry x="70" y="90" width="70" height="30" as="geometry" />
        </mxCell>
        <mxCell id="z_mEyN4N-O0lo0nMOTQI-49" value="" style="group" parent="z_mEyN4N-O0lo0nMOTQI-53" vertex="1" connectable="0">
          <mxGeometry width="100" height="60" as="geometry" />
        </mxCell>
        <mxCell id="z_mEyN4N-O0lo0nMOTQI-35" value="F.Inicio" style="ellipse;whiteSpace=wrap;html=1;align=center;" parent="z_mEyN4N-O0lo0nMOTQI-49" vertex="1">
          <mxGeometry x="30" y="40" width="50" height="20" as="geometry" />
        </mxCell>
        <mxCell id="z_mEyN4N-O0lo0nMOTQI-36" value="Año" style="ellipse;whiteSpace=wrap;html=1;align=center;" parent="z_mEyN4N-O0lo0nMOTQI-49" vertex="1">
          <mxGeometry x="70" width="30" height="20" as="geometry" />
        </mxCell>
        <mxCell id="z_mEyN4N-O0lo0nMOTQI-37" value="Mes" style="ellipse;whiteSpace=wrap;html=1;align=center;" parent="z_mEyN4N-O0lo0nMOTQI-49" vertex="1">
          <mxGeometry x="35" width="30" height="20" as="geometry" />
        </mxCell>
        <mxCell id="z_mEyN4N-O0lo0nMOTQI-38" value="Día" style="ellipse;whiteSpace=wrap;html=1;align=center;" parent="z_mEyN4N-O0lo0nMOTQI-49" vertex="1">
          <mxGeometry width="30" height="20" as="geometry" />
        </mxCell>
        <mxCell id="z_mEyN4N-O0lo0nMOTQI-39" value="" style="endArrow=none;html=1;rounded=0;exitX=0.5;exitY=1;exitDx=0;exitDy=0;entryX=1;entryY=0;entryDx=0;entryDy=0;" parent="z_mEyN4N-O0lo0nMOTQI-49" source="z_mEyN4N-O0lo0nMOTQI-36" target="z_mEyN4N-O0lo0nMOTQI-35" edge="1">
          <mxGeometry relative="1" as="geometry">
            <mxPoint x="280" as="sourcePoint" />
            <mxPoint x="440" as="targetPoint" />
          </mxGeometry>
        </mxCell>
        <mxCell id="z_mEyN4N-O0lo0nMOTQI-40" value="" style="endArrow=none;html=1;rounded=0;exitX=0.5;exitY=1;exitDx=0;exitDy=0;entryX=0.5;entryY=0;entryDx=0;entryDy=0;" parent="z_mEyN4N-O0lo0nMOTQI-49" source="z_mEyN4N-O0lo0nMOTQI-37" target="z_mEyN4N-O0lo0nMOTQI-35" edge="1">
          <mxGeometry relative="1" as="geometry">
            <mxPoint x="280" as="sourcePoint" />
            <mxPoint x="440" as="targetPoint" />
          </mxGeometry>
        </mxCell>
        <mxCell id="z_mEyN4N-O0lo0nMOTQI-41" value="" style="endArrow=none;html=1;rounded=0;exitX=0.5;exitY=1;exitDx=0;exitDy=0;entryX=0;entryY=0;entryDx=0;entryDy=0;" parent="z_mEyN4N-O0lo0nMOTQI-49" source="z_mEyN4N-O0lo0nMOTQI-38" target="z_mEyN4N-O0lo0nMOTQI-35" edge="1">
          <mxGeometry relative="1" as="geometry">
            <mxPoint x="280" as="sourcePoint" />
            <mxPoint x="440" as="targetPoint" />
          </mxGeometry>
        </mxCell>
        <mxCell id="z_mEyN4N-O0lo0nMOTQI-50" value="" style="group" parent="z_mEyN4N-O0lo0nMOTQI-53" vertex="1" connectable="0">
          <mxGeometry x="105" width="100" height="60" as="geometry" />
        </mxCell>
        <mxCell id="z_mEyN4N-O0lo0nMOTQI-42" value="F.Fin" style="ellipse;whiteSpace=wrap;html=1;align=center;" parent="z_mEyN4N-O0lo0nMOTQI-50" vertex="1">
          <mxGeometry x="30" y="40" width="50" height="20" as="geometry" />
        </mxCell>
        <mxCell id="z_mEyN4N-O0lo0nMOTQI-43" value="Año" style="ellipse;whiteSpace=wrap;html=1;align=center;" parent="z_mEyN4N-O0lo0nMOTQI-50" vertex="1">
          <mxGeometry x="70" width="30" height="20" as="geometry" />
        </mxCell>
        <mxCell id="z_mEyN4N-O0lo0nMOTQI-44" value="Mes" style="ellipse;whiteSpace=wrap;html=1;align=center;" parent="z_mEyN4N-O0lo0nMOTQI-50" vertex="1">
          <mxGeometry x="35" width="30" height="20" as="geometry" />
        </mxCell>
        <mxCell id="z_mEyN4N-O0lo0nMOTQI-45" value="Día" style="ellipse;whiteSpace=wrap;html=1;align=center;" parent="z_mEyN4N-O0lo0nMOTQI-50" vertex="1">
          <mxGeometry width="30" height="20" as="geometry" />
        </mxCell>
        <mxCell id="z_mEyN4N-O0lo0nMOTQI-46" value="" style="endArrow=none;html=1;rounded=0;exitX=0.5;exitY=1;exitDx=0;exitDy=0;entryX=1;entryY=0;entryDx=0;entryDy=0;" parent="z_mEyN4N-O0lo0nMOTQI-50" source="z_mEyN4N-O0lo0nMOTQI-43" target="z_mEyN4N-O0lo0nMOTQI-42" edge="1">
          <mxGeometry relative="1" as="geometry">
            <mxPoint x="280" as="sourcePoint" />
            <mxPoint x="440" as="targetPoint" />
          </mxGeometry>
        </mxCell>
        <mxCell id="z_mEyN4N-O0lo0nMOTQI-47" value="" style="endArrow=none;html=1;rounded=0;exitX=0.5;exitY=1;exitDx=0;exitDy=0;entryX=0.5;entryY=0;entryDx=0;entryDy=0;" parent="z_mEyN4N-O0lo0nMOTQI-50" source="z_mEyN4N-O0lo0nMOTQI-44" target="z_mEyN4N-O0lo0nMOTQI-42" edge="1">
          <mxGeometry relative="1" as="geometry">
            <mxPoint x="280" as="sourcePoint" />
            <mxPoint x="440" as="targetPoint" />
          </mxGeometry>
        </mxCell>
        <mxCell id="z_mEyN4N-O0lo0nMOTQI-48" value="" style="endArrow=none;html=1;rounded=0;exitX=0.5;exitY=1;exitDx=0;exitDy=0;entryX=0;entryY=0;entryDx=0;entryDy=0;" parent="z_mEyN4N-O0lo0nMOTQI-50" source="z_mEyN4N-O0lo0nMOTQI-45" target="z_mEyN4N-O0lo0nMOTQI-42" edge="1">
          <mxGeometry relative="1" as="geometry">
            <mxPoint x="280" as="sourcePoint" />
            <mxPoint x="440" as="targetPoint" />
          </mxGeometry>
        </mxCell>
        <mxCell id="z_mEyN4N-O0lo0nMOTQI-51" value="" style="endArrow=none;html=1;rounded=0;exitX=0.5;exitY=1;exitDx=0;exitDy=0;entryX=0.25;entryY=0;entryDx=0;entryDy=0;" parent="z_mEyN4N-O0lo0nMOTQI-53" source="z_mEyN4N-O0lo0nMOTQI-35" target="XRtFIheSeocgoj4U0Oa9-10" edge="1">
          <mxGeometry relative="1" as="geometry">
            <mxPoint x="15" y="110" as="sourcePoint" />
            <mxPoint x="175" y="110" as="targetPoint" />
          </mxGeometry>
        </mxCell>
        <mxCell id="z_mEyN4N-O0lo0nMOTQI-52" value="" style="endArrow=none;html=1;rounded=0;exitX=0.75;exitY=0;exitDx=0;exitDy=0;" parent="z_mEyN4N-O0lo0nMOTQI-53" source="XRtFIheSeocgoj4U0Oa9-10" edge="1">
          <mxGeometry relative="1" as="geometry">
            <mxPoint x="15" y="110" as="sourcePoint" />
            <mxPoint x="165" y="60" as="targetPoint" />
          </mxGeometry>
        </mxCell>
        <mxCell id="z_mEyN4N-O0lo0nMOTQI-88" value="&lt;font style=&quot;font-size: 8px;&quot;&gt;Cod.Alq&lt;/font&gt;" style="ellipse;whiteSpace=wrap;html=1;align=center;fontStyle=4;" parent="z_mEyN4N-O0lo0nMOTQI-53" vertex="1">
          <mxGeometry y="70" width="30" height="20" as="geometry" />
        </mxCell>
        <mxCell id="z_mEyN4N-O0lo0nMOTQI-118" value="" style="endArrow=none;html=1;rounded=0;exitX=1;exitY=1;exitDx=0;exitDy=0;entryX=0;entryY=0.25;entryDx=0;entryDy=0;" parent="z_mEyN4N-O0lo0nMOTQI-53" source="z_mEyN4N-O0lo0nMOTQI-88" target="XRtFIheSeocgoj4U0Oa9-10" edge="1">
          <mxGeometry relative="1" as="geometry">
            <mxPoint x="-65" y="120" as="sourcePoint" />
            <mxPoint x="75" y="110" as="targetPoint" />
          </mxGeometry>
        </mxCell>
        <mxCell id="z_mEyN4N-O0lo0nMOTQI-58" value="Nombre" style="ellipse;whiteSpace=wrap;html=1;align=center;" parent="1" vertex="1">
          <mxGeometry x="750" y="190" width="50" height="20" as="geometry" />
        </mxCell>
        <mxCell id="z_mEyN4N-O0lo0nMOTQI-59" value="Genero" style="ellipse;whiteSpace=wrap;html=1;align=center;" parent="1" vertex="1">
          <mxGeometry x="800" y="190" width="40" height="20" as="geometry" />
        </mxCell>
        <mxCell id="z_mEyN4N-O0lo0nMOTQI-66" value="Apellidos" style="ellipse;whiteSpace=wrap;html=1;align=center;" parent="1" vertex="1">
          <mxGeometry x="940" y="520" width="50" height="20" as="geometry" />
        </mxCell>
        <mxCell id="z_mEyN4N-O0lo0nMOTQI-67" value="Nombre" style="ellipse;whiteSpace=wrap;html=1;align=center;" parent="1" vertex="1">
          <mxGeometry x="990" y="520" width="50" height="20" as="geometry" />
        </mxCell>
        <mxCell id="z_mEyN4N-O0lo0nMOTQI-68" value="DNI" style="ellipse;whiteSpace=wrap;html=1;align=center;" parent="1" vertex="1">
          <mxGeometry x="900" y="520" width="40" height="20" as="geometry" />
        </mxCell>
        <mxCell id="z_mEyN4N-O0lo0nMOTQI-70" value="F.Naci" style="ellipse;whiteSpace=wrap;html=1;align=center;" parent="1" vertex="1">
          <mxGeometry x="850" y="520" width="50" height="20" as="geometry" />
        </mxCell>
        <mxCell id="z_mEyN4N-O0lo0nMOTQI-71" value="Año" style="ellipse;whiteSpace=wrap;html=1;align=center;" parent="1" vertex="1">
          <mxGeometry x="890" y="480" width="30" height="20" as="geometry" />
        </mxCell>
        <mxCell id="z_mEyN4N-O0lo0nMOTQI-72" value="Mes" style="ellipse;whiteSpace=wrap;html=1;align=center;" parent="1" vertex="1">
          <mxGeometry x="855" y="480" width="30" height="20" as="geometry" />
        </mxCell>
        <mxCell id="z_mEyN4N-O0lo0nMOTQI-73" value="Día" style="ellipse;whiteSpace=wrap;html=1;align=center;" parent="1" vertex="1">
          <mxGeometry x="820" y="480" width="30" height="20" as="geometry" />
        </mxCell>
        <mxCell id="z_mEyN4N-O0lo0nMOTQI-74" value="" style="endArrow=none;html=1;rounded=0;exitX=0.5;exitY=1;exitDx=0;exitDy=0;entryX=1;entryY=0;entryDx=0;entryDy=0;" parent="1" source="z_mEyN4N-O0lo0nMOTQI-71" target="z_mEyN4N-O0lo0nMOTQI-70" edge="1">
          <mxGeometry relative="1" as="geometry">
            <mxPoint x="1100" y="480" as="sourcePoint" />
            <mxPoint x="1260" y="480" as="targetPoint" />
          </mxGeometry>
        </mxCell>
        <mxCell id="z_mEyN4N-O0lo0nMOTQI-75" value="" style="endArrow=none;html=1;rounded=0;exitX=0.5;exitY=1;exitDx=0;exitDy=0;entryX=0.5;entryY=0;entryDx=0;entryDy=0;" parent="1" source="z_mEyN4N-O0lo0nMOTQI-72" target="z_mEyN4N-O0lo0nMOTQI-70" edge="1">
          <mxGeometry relative="1" as="geometry">
            <mxPoint x="1100" y="480" as="sourcePoint" />
            <mxPoint x="1260" y="480" as="targetPoint" />
          </mxGeometry>
        </mxCell>
        <mxCell id="z_mEyN4N-O0lo0nMOTQI-76" value="" style="endArrow=none;html=1;rounded=0;exitX=0.5;exitY=1;exitDx=0;exitDy=0;entryX=0;entryY=0;entryDx=0;entryDy=0;" parent="1" source="z_mEyN4N-O0lo0nMOTQI-73" target="z_mEyN4N-O0lo0nMOTQI-70" edge="1">
          <mxGeometry relative="1" as="geometry">
            <mxPoint x="1100" y="480" as="sourcePoint" />
            <mxPoint x="1260" y="480" as="targetPoint" />
          </mxGeometry>
        </mxCell>
        <mxCell id="z_mEyN4N-O0lo0nMOTQI-77" value="Titulo" style="ellipse;whiteSpace=wrap;html=1;align=center;" parent="1" vertex="1">
          <mxGeometry x="500" y="185" width="40" height="20" as="geometry" />
        </mxCell>
        <mxCell id="z_mEyN4N-O0lo0nMOTQI-79" value="&lt;font style=&quot;font-size: 8px;&quot;&gt;Nacionalidad&lt;/font&gt;" style="ellipse;whiteSpace=wrap;html=1;align=center;" parent="1" vertex="1">
          <mxGeometry x="400" y="200" width="50" height="20" as="geometry" />
        </mxCell>
        <mxCell id="z_mEyN4N-O0lo0nMOTQI-81" value="&lt;font style=&quot;font-size: 8px;&quot;&gt;Nacionalidad&lt;/font&gt;" style="ellipse;whiteSpace=wrap;html=1;align=center;" parent="1" vertex="1">
          <mxGeometry x="830" y="210" width="50" height="20" as="geometry" />
        </mxCell>
        <mxCell id="z_mEyN4N-O0lo0nMOTQI-82" value="&lt;font style=&quot;font-size: 8px;&quot;&gt;Id. film&lt;/font&gt;" style="ellipse;whiteSpace=wrap;html=1;align=center;fontStyle=4;" parent="1" vertex="1">
          <mxGeometry x="380" y="225" width="30" height="20" as="geometry" />
        </mxCell>
        <mxCell id="z_mEyN4N-O0lo0nMOTQI-84" value="&lt;font style=&quot;font-size: 8px;&quot;&gt;Id.Actor&lt;/font&gt;" style="ellipse;whiteSpace=wrap;html=1;align=center;fontStyle=4;" parent="1" vertex="1">
          <mxGeometry x="880" y="225" width="30" height="20" as="geometry" />
        </mxCell>
        <mxCell id="z_mEyN4N-O0lo0nMOTQI-86" value="&lt;font style=&quot;font-size: 8px;&quot;&gt;Id.copia&lt;/font&gt;" style="ellipse;whiteSpace=wrap;html=1;align=center;fontStyle=4;" parent="1" vertex="1">
          <mxGeometry x="410" y="520" width="30" height="20" as="geometry" />
        </mxCell>
        <mxCell id="z_mEyN4N-O0lo0nMOTQI-87" value="&lt;font style=&quot;font-size: 8px;&quot;&gt;N.Socio&lt;/font&gt;" style="ellipse;whiteSpace=wrap;html=1;align=center;fontStyle=4;" parent="1" vertex="1">
          <mxGeometry x="825" y="540" width="30" height="20" as="geometry" />
        </mxCell>
        <mxCell id="z_mEyN4N-O0lo0nMOTQI-89" value="" style="endArrow=none;html=1;rounded=0;exitX=0.5;exitY=1;exitDx=0;exitDy=0;entryX=0.5;entryY=0;entryDx=0;entryDy=0;" parent="1" source="z_mEyN4N-O0lo0nMOTQI-77" target="XRtFIheSeocgoj4U0Oa9-1" edge="1">
          <mxGeometry relative="1" as="geometry">
            <mxPoint x="645" y="10" as="sourcePoint" />
            <mxPoint x="805" y="10" as="targetPoint" />
          </mxGeometry>
        </mxCell>
        <mxCell id="z_mEyN4N-O0lo0nMOTQI-90" value="" style="endArrow=none;html=1;rounded=0;exitX=0.5;exitY=1;exitDx=0;exitDy=0;entryX=0.25;entryY=0;entryDx=0;entryDy=0;" parent="1" source="z_mEyN4N-O0lo0nMOTQI-7" target="XRtFIheSeocgoj4U0Oa9-1" edge="1">
          <mxGeometry relative="1" as="geometry">
            <mxPoint x="645" y="10" as="sourcePoint" />
            <mxPoint x="805" y="10" as="targetPoint" />
          </mxGeometry>
        </mxCell>
        <mxCell id="z_mEyN4N-O0lo0nMOTQI-91" value="" style="endArrow=none;html=1;rounded=0;exitX=1;exitY=0.5;exitDx=0;exitDy=0;" parent="1" source="z_mEyN4N-O0lo0nMOTQI-86" edge="1">
          <mxGeometry relative="1" as="geometry">
            <mxPoint x="532.5" y="590" as="sourcePoint" />
            <mxPoint x="460" y="560" as="targetPoint" />
          </mxGeometry>
        </mxCell>
        <mxCell id="z_mEyN4N-O0lo0nMOTQI-92" value="" style="endArrow=none;html=1;rounded=0;exitX=0.5;exitY=1;exitDx=0;exitDy=0;entryX=0.75;entryY=0;entryDx=0;entryDy=0;" parent="1" source="z_mEyN4N-O0lo0nMOTQI-67" target="XRtFIheSeocgoj4U0Oa9-8" edge="1">
          <mxGeometry relative="1" as="geometry">
            <mxPoint x="1010" y="650" as="sourcePoint" />
            <mxPoint x="1170" y="650" as="targetPoint" />
          </mxGeometry>
        </mxCell>
        <mxCell id="z_mEyN4N-O0lo0nMOTQI-93" value="" style="endArrow=none;html=1;rounded=0;exitX=0.5;exitY=1;exitDx=0;exitDy=0;entryX=0.5;entryY=0;entryDx=0;entryDy=0;" parent="1" source="z_mEyN4N-O0lo0nMOTQI-66" target="XRtFIheSeocgoj4U0Oa9-8" edge="1">
          <mxGeometry relative="1" as="geometry">
            <mxPoint x="1010" y="650" as="sourcePoint" />
            <mxPoint x="1170" y="650" as="targetPoint" />
          </mxGeometry>
        </mxCell>
        <mxCell id="z_mEyN4N-O0lo0nMOTQI-94" value="" style="endArrow=none;html=1;rounded=0;exitX=0.5;exitY=1;exitDx=0;exitDy=0;entryX=0.25;entryY=0;entryDx=0;entryDy=0;" parent="1" source="z_mEyN4N-O0lo0nMOTQI-68" target="XRtFIheSeocgoj4U0Oa9-8" edge="1">
          <mxGeometry relative="1" as="geometry">
            <mxPoint x="1010" y="650" as="sourcePoint" />
            <mxPoint x="1170" y="650" as="targetPoint" />
          </mxGeometry>
        </mxCell>
        <mxCell id="z_mEyN4N-O0lo0nMOTQI-95" value="" style="endArrow=none;html=1;rounded=0;exitX=0.5;exitY=1;exitDx=0;exitDy=0;" parent="1" source="z_mEyN4N-O0lo0nMOTQI-70" edge="1">
          <mxGeometry relative="1" as="geometry">
            <mxPoint x="1010" y="650" as="sourcePoint" />
            <mxPoint x="910" y="570" as="targetPoint" />
          </mxGeometry>
        </mxCell>
        <mxCell id="z_mEyN4N-O0lo0nMOTQI-96" value="" style="endArrow=none;html=1;rounded=0;exitX=1;exitY=1;exitDx=0;exitDy=0;entryX=0;entryY=0.5;entryDx=0;entryDy=0;" parent="1" source="z_mEyN4N-O0lo0nMOTQI-87" target="XRtFIheSeocgoj4U0Oa9-8" edge="1">
          <mxGeometry relative="1" as="geometry">
            <mxPoint x="1010" y="650" as="sourcePoint" />
            <mxPoint x="1170" y="650" as="targetPoint" />
          </mxGeometry>
        </mxCell>
        <mxCell id="z_mEyN4N-O0lo0nMOTQI-97" value="" style="endArrow=none;html=1;rounded=0;exitX=0.5;exitY=1;exitDx=0;exitDy=0;entryX=0.75;entryY=0;entryDx=0;entryDy=0;" parent="1" source="z_mEyN4N-O0lo0nMOTQI-59" target="XRtFIheSeocgoj4U0Oa9-3" edge="1">
          <mxGeometry relative="1" as="geometry">
            <mxPoint x="280" y="120" as="sourcePoint" />
            <mxPoint x="440" y="120" as="targetPoint" />
          </mxGeometry>
        </mxCell>
        <mxCell id="z_mEyN4N-O0lo0nMOTQI-98" value="" style="endArrow=none;html=1;rounded=0;exitX=0.5;exitY=1;exitDx=0;exitDy=0;entryX=0.5;entryY=0;entryDx=0;entryDy=0;" parent="1" source="z_mEyN4N-O0lo0nMOTQI-58" target="XRtFIheSeocgoj4U0Oa9-3" edge="1">
          <mxGeometry relative="1" as="geometry">
            <mxPoint x="280" y="120" as="sourcePoint" />
            <mxPoint x="440" y="120" as="targetPoint" />
          </mxGeometry>
        </mxCell>
        <mxCell id="z_mEyN4N-O0lo0nMOTQI-99" value="" style="endArrow=none;html=1;rounded=0;exitX=0.5;exitY=1;exitDx=0;exitDy=0;entryX=0.25;entryY=0;entryDx=0;entryDy=0;" parent="1" source="z_mEyN4N-O0lo0nMOTQI-57" target="XRtFIheSeocgoj4U0Oa9-3" edge="1">
          <mxGeometry relative="1" as="geometry">
            <mxPoint x="280" y="120" as="sourcePoint" />
            <mxPoint x="440" y="120" as="targetPoint" />
          </mxGeometry>
        </mxCell>
        <mxCell id="z_mEyN4N-O0lo0nMOTQI-100" value="" style="endArrow=none;html=1;rounded=0;exitX=1;exitY=0.5;exitDx=0;exitDy=0;entryX=1;entryY=0;entryDx=0;entryDy=0;" parent="1" source="z_mEyN4N-O0lo0nMOTQI-14" target="XRtFIheSeocgoj4U0Oa9-3" edge="1">
          <mxGeometry relative="1" as="geometry">
            <mxPoint x="280" y="120" as="sourcePoint" />
            <mxPoint x="440" y="120" as="targetPoint" />
          </mxGeometry>
        </mxCell>
        <mxCell id="z_mEyN4N-O0lo0nMOTQI-101" value="" style="endArrow=none;html=1;rounded=0;exitX=1;exitY=0.5;exitDx=0;exitDy=0;entryX=1;entryY=0.5;entryDx=0;entryDy=0;" parent="1" source="z_mEyN4N-O0lo0nMOTQI-84" target="XRtFIheSeocgoj4U0Oa9-3" edge="1">
          <mxGeometry relative="1" as="geometry">
            <mxPoint x="280" y="120" as="sourcePoint" />
            <mxPoint x="440" y="120" as="targetPoint" />
          </mxGeometry>
        </mxCell>
        <mxCell id="z_mEyN4N-O0lo0nMOTQI-108" value="" style="endArrow=none;html=1;rounded=0;exitX=0.5;exitY=1;exitDx=0;exitDy=0;entryX=0;entryY=0.5;entryDx=0;entryDy=0;" parent="1" target="XRtFIheSeocgoj4U0Oa9-1" edge="1">
          <mxGeometry relative="1" as="geometry">
            <mxPoint x="405" y="240" as="sourcePoint" />
            <mxPoint x="805" y="10" as="targetPoint" />
          </mxGeometry>
        </mxCell>
        <mxCell id="z_mEyN4N-O0lo0nMOTQI-109" value="" style="endArrow=none;html=1;rounded=0;exitX=0.5;exitY=1;exitDx=0;exitDy=0;entryX=0;entryY=0.25;entryDx=0;entryDy=0;" parent="1" source="z_mEyN4N-O0lo0nMOTQI-79" target="XRtFIheSeocgoj4U0Oa9-1" edge="1">
          <mxGeometry relative="1" as="geometry">
            <mxPoint x="645" y="10" as="sourcePoint" />
            <mxPoint x="805" y="10" as="targetPoint" />
          </mxGeometry>
        </mxCell>
        <mxCell id="z_mEyN4N-O0lo0nMOTQI-116" value="" style="endArrow=none;html=1;rounded=0;exitX=0.5;exitY=1;exitDx=0;exitDy=0;entryX=1;entryY=0;entryDx=0;entryDy=0;" parent="1" source="z_mEyN4N-O0lo0nMOTQI-81" target="XRtFIheSeocgoj4U0Oa9-3" edge="1">
          <mxGeometry relative="1" as="geometry">
            <mxPoint x="280" y="120" as="sourcePoint" />
            <mxPoint x="440" y="120" as="targetPoint" />
          </mxGeometry>
        </mxCell>
        <mxCell id="d9QAcNXBwErW454B2x9x-1" value="" style="group" vertex="1" connectable="0" parent="1">
          <mxGeometry x="410" y="550" width="170" height="80" as="geometry" />
        </mxCell>
        <mxCell id="XRtFIheSeocgoj4U0Oa9-49" value="" style="verticalLabelPosition=bottom;verticalAlign=top;html=1;shape=mxgraph.basic.acute_triangle;dx=0.52;" parent="d9QAcNXBwErW454B2x9x-1" vertex="1">
          <mxGeometry x="70" y="50" width="30" height="20" as="geometry" />
        </mxCell>
        <mxCell id="XRtFIheSeocgoj4U0Oa9-51" value="" style="endArrow=none;html=1;rounded=0;exitX=0;exitY=0;exitDx=15.600000000000001;exitDy=0;exitPerimeter=0;" parent="d9QAcNXBwErW454B2x9x-1" source="XRtFIheSeocgoj4U0Oa9-49" edge="1">
          <mxGeometry width="50" height="50" relative="1" as="geometry">
            <mxPoint x="60" y="-10" as="sourcePoint" />
            <mxPoint x="90" y="20" as="targetPoint" />
          </mxGeometry>
        </mxCell>
        <mxCell id="XRtFIheSeocgoj4U0Oa9-54" value="" style="endArrow=none;html=1;rounded=0;exitX=0;exitY=0;exitDx=7.800000000000001;exitDy=10;exitPerimeter=0;entryX=0;entryY=1;entryDx=0;entryDy=0;" parent="d9QAcNXBwErW454B2x9x-1" source="XRtFIheSeocgoj4U0Oa9-49" target="XRtFIheSeocgoj4U0Oa9-58" edge="1">
          <mxGeometry width="50" height="50" relative="1" as="geometry">
            <mxPoint x="60" as="sourcePoint" />
            <mxPoint x="110" y="-50" as="targetPoint" />
            <Array as="points">
              <mxPoint x="10" y="60" />
            </Array>
          </mxGeometry>
        </mxCell>
        <mxCell id="XRtFIheSeocgoj4U0Oa9-55" value="" style="endArrow=none;html=1;rounded=0;exitX=1;exitY=1;exitDx=0;exitDy=0;entryX=0;entryY=0;entryDx=22.8;entryDy=10;entryPerimeter=0;" parent="d9QAcNXBwErW454B2x9x-1" source="XRtFIheSeocgoj4U0Oa9-59" target="XRtFIheSeocgoj4U0Oa9-49" edge="1">
          <mxGeometry width="50" height="50" relative="1" as="geometry">
            <mxPoint x="60" as="sourcePoint" />
            <mxPoint x="110" y="-50" as="targetPoint" />
            <Array as="points">
              <mxPoint x="160" y="60" />
            </Array>
          </mxGeometry>
        </mxCell>
        <mxCell id="XRtFIheSeocgoj4U0Oa9-56" value="" style="endArrow=none;html=1;rounded=0;edgeStyle=orthogonalEdgeStyle;curved=1;" parent="d9QAcNXBwErW454B2x9x-1" edge="1">
          <mxGeometry width="50" height="50" relative="1" as="geometry">
            <mxPoint as="sourcePoint" />
            <mxPoint x="170" as="targetPoint" />
            <Array as="points">
              <mxPoint y="30" />
              <mxPoint x="170" y="30" />
            </Array>
          </mxGeometry>
        </mxCell>
        <mxCell id="XRtFIheSeocgoj4U0Oa9-58" value="&lt;font style=&quot;font-size: 6px;&quot;&gt;0:N&lt;/font&gt;" style="text;html=1;align=center;verticalAlign=middle;whiteSpace=wrap;rounded=0;" parent="d9QAcNXBwErW454B2x9x-1" vertex="1">
          <mxGeometry x="10" y="60" width="30" height="20" as="geometry" />
        </mxCell>
        <mxCell id="XRtFIheSeocgoj4U0Oa9-59" value="&lt;font style=&quot;font-size: 6px;&quot;&gt;0:N&lt;/font&gt;" style="text;html=1;align=center;verticalAlign=middle;whiteSpace=wrap;rounded=0;" parent="d9QAcNXBwErW454B2x9x-1" vertex="1">
          <mxGeometry x="130" y="60" width="30" height="20" as="geometry" />
        </mxCell>
        <mxCell id="d9QAcNXBwErW454B2x9x-2" value="" style="group" vertex="1" connectable="0" parent="1">
          <mxGeometry x="535" y="160" width="235" height="230" as="geometry" />
        </mxCell>
        <mxCell id="XRtFIheSeocgoj4U0Oa9-16" value="&lt;font style=&quot;font-size: 8px;&quot;&gt;Protagonizar&lt;/font&gt;" style="shape=rhombus;perimeter=rhombusPerimeter;whiteSpace=wrap;html=1;align=center;" parent="d9QAcNXBwErW454B2x9x-2" vertex="1">
          <mxGeometry x="65" y="150" width="80" height="40" as="geometry" />
        </mxCell>
        <mxCell id="XRtFIheSeocgoj4U0Oa9-17" value="&lt;font style=&quot;font-size: 8px;&quot;&gt;Actuar&lt;/font&gt;" style="shape=rhombus;perimeter=rhombusPerimeter;whiteSpace=wrap;html=1;align=center;" parent="d9QAcNXBwErW454B2x9x-2" vertex="1">
          <mxGeometry x="65" y="30" width="80" height="40" as="geometry" />
        </mxCell>
        <mxCell id="XRtFIheSeocgoj4U0Oa9-31" value="&lt;font style=&quot;font-size: 8px;&quot;&gt;1:N&lt;/font&gt;" style="text;html=1;align=center;verticalAlign=middle;whiteSpace=wrap;rounded=0;" parent="d9QAcNXBwErW454B2x9x-2" vertex="1">
          <mxGeometry x="185" y="130" width="20" height="10" as="geometry" />
        </mxCell>
        <mxCell id="XRtFIheSeocgoj4U0Oa9-32" value="&lt;font style=&quot;font-size: 8px;&quot;&gt;1:N&lt;/font&gt;" style="text;html=1;align=center;verticalAlign=middle;whiteSpace=wrap;rounded=0;" parent="d9QAcNXBwErW454B2x9x-2" vertex="1">
          <mxGeometry x="5" y="130" width="20" height="10" as="geometry" />
        </mxCell>
        <mxCell id="XRtFIheSeocgoj4U0Oa9-33" value="&lt;font style=&quot;font-size: 8px;&quot;&gt;1:N&lt;/font&gt;" style="text;html=1;align=center;verticalAlign=middle;whiteSpace=wrap;rounded=0;" parent="d9QAcNXBwErW454B2x9x-2" vertex="1">
          <mxGeometry x="5" y="70" width="20" height="10" as="geometry" />
        </mxCell>
        <mxCell id="XRtFIheSeocgoj4U0Oa9-34" value="&lt;font style=&quot;font-size: 8px;&quot;&gt;1:N&lt;/font&gt;" style="text;html=1;align=center;verticalAlign=middle;whiteSpace=wrap;rounded=0;" parent="d9QAcNXBwErW454B2x9x-2" vertex="1">
          <mxGeometry x="185" y="70" width="20" height="10" as="geometry" />
        </mxCell>
        <mxCell id="z_mEyN4N-O0lo0nMOTQI-6" value="" style="endArrow=none;html=1;rounded=0;entryX=0.5;entryY=1;entryDx=0;entryDy=0;exitX=0.444;exitY=0;exitDx=0;exitDy=0;exitPerimeter=0;" parent="d9QAcNXBwErW454B2x9x-2" target="XRtFIheSeocgoj4U0Oa9-16" edge="1">
          <mxGeometry width="50" height="50" relative="1" as="geometry">
            <mxPoint x="104.96000000000004" y="230" as="sourcePoint" />
            <mxPoint x="-15" y="20" as="targetPoint" />
          </mxGeometry>
        </mxCell>
        <mxCell id="z_mEyN4N-O0lo0nMOTQI-57" value="Apellidos" style="ellipse;whiteSpace=wrap;html=1;align=center;" parent="d9QAcNXBwErW454B2x9x-2" vertex="1">
          <mxGeometry x="185" y="10" width="50" height="20" as="geometry" />
        </mxCell>
        <mxCell id="XRtFIheSeocgoj4U0Oa9-29" value="" style="endArrow=none;html=1;rounded=0;entryX=0;entryY=0.5;entryDx=0;entryDy=0;exitX=0.917;exitY=0.072;exitDx=0;exitDy=0;exitPerimeter=0;" parent="1" target="XRtFIheSeocgoj4U0Oa9-17" edge="1" source="XRtFIheSeocgoj4U0Oa9-1">
          <mxGeometry width="50" height="50" relative="1" as="geometry">
            <mxPoint x="530" y="255" as="sourcePoint" />
            <mxPoint x="460" y="120" as="targetPoint" />
            <Array as="points">
              <mxPoint x="535" y="210" />
            </Array>
          </mxGeometry>
        </mxCell>
        <mxCell id="XRtFIheSeocgoj4U0Oa9-28" value="" style="endArrow=none;html=1;rounded=0;exitX=0;exitY=0.5;exitDx=0;exitDy=0;entryX=0.889;entryY=1.007;entryDx=0;entryDy=0;entryPerimeter=0;" parent="1" source="XRtFIheSeocgoj4U0Oa9-16" edge="1" target="XRtFIheSeocgoj4U0Oa9-1">
          <mxGeometry width="50" height="50" relative="1" as="geometry">
            <mxPoint x="410" y="170" as="sourcePoint" />
            <mxPoint x="535" y="265" as="targetPoint" />
            <Array as="points">
              <mxPoint x="535" y="330" />
            </Array>
          </mxGeometry>
        </mxCell>
        <mxCell id="XRtFIheSeocgoj4U0Oa9-30" value="" style="endArrow=none;html=1;rounded=0;exitX=1;exitY=0.5;exitDx=0;exitDy=0;entryX=0;entryY=0;entryDx=0;entryDy=0;" parent="1" source="XRtFIheSeocgoj4U0Oa9-17" edge="1" target="XRtFIheSeocgoj4U0Oa9-3">
          <mxGeometry width="50" height="50" relative="1" as="geometry">
            <mxPoint x="410" y="170" as="sourcePoint" />
            <mxPoint x="745" y="240" as="targetPoint" />
            <Array as="points">
              <mxPoint x="745" y="210" />
            </Array>
          </mxGeometry>
        </mxCell>
        <mxCell id="XRtFIheSeocgoj4U0Oa9-27" value="" style="endArrow=none;html=1;rounded=0;exitX=1;exitY=0.5;exitDx=0;exitDy=0;entryX=0;entryY=1;entryDx=0;entryDy=0;" parent="1" source="XRtFIheSeocgoj4U0Oa9-16" edge="1" target="XRtFIheSeocgoj4U0Oa9-3">
          <mxGeometry width="50" height="50" relative="1" as="geometry">
            <mxPoint x="410" y="170" as="sourcePoint" />
            <mxPoint x="745" y="290" as="targetPoint" />
            <Array as="points">
              <mxPoint x="745" y="330" />
            </Array>
          </mxGeometry>
        </mxCell>
        <mxCell id="z_mEyN4N-O0lo0nMOTQI-1" value="Casting" style="shape=ext;margin=3;double=1;whiteSpace=wrap;html=1;align=center;" parent="1" vertex="1">
          <mxGeometry x="590" y="390" width="90" height="30" as="geometry" />
        </mxCell>
        <mxCell id="z_mEyN4N-O0lo0nMOTQI-54" value="Rol" style="ellipse;whiteSpace=wrap;html=1;align=center;" parent="1" vertex="1">
          <mxGeometry x="610" y="460" width="50" height="20" as="geometry" />
        </mxCell>
        <mxCell id="z_mEyN4N-O0lo0nMOTQI-55" value="" style="endArrow=none;html=1;rounded=0;entryX=0.5;entryY=0;entryDx=0;entryDy=0;exitX=0.5;exitY=1;exitDx=0;exitDy=0;" parent="1" source="z_mEyN4N-O0lo0nMOTQI-1" target="z_mEyN4N-O0lo0nMOTQI-54" edge="1">
          <mxGeometry relative="1" as="geometry">
            <mxPoint x="505" y="425" as="sourcePoint" />
            <mxPoint x="345" y="415" as="targetPoint" />
          </mxGeometry>
        </mxCell>
        <mxCell id="d9QAcNXBwErW454B2x9x-3" value="" style="endArrow=none;html=1;rounded=0;entryX=0;entryY=0.75;entryDx=0;entryDy=0;exitX=1;exitY=0.5;exitDx=0;exitDy=0;" edge="1" parent="1" source="XRtFIheSeocgoj4U0Oa9-14" target="XRtFIheSeocgoj4U0Oa9-1">
          <mxGeometry width="50" height="50" relative="1" as="geometry">
            <mxPoint x="470" y="330" as="sourcePoint" />
            <mxPoint x="520" y="280" as="targetPoint" />
          </mxGeometry>
        </mxCell>
        <mxCell id="d9QAcNXBwErW454B2x9x-4" value="" style="group" vertex="1" connectable="0" parent="1">
          <mxGeometry y="80" width="265" height="120" as="geometry" />
        </mxCell>
        <mxCell id="XRtFIheSeocgoj4U0Oa9-6" value="&lt;font style=&quot;font-size: 8px;&quot;&gt;Productores&lt;/font&gt;" style="rounded=0;whiteSpace=wrap;html=1;" parent="d9QAcNXBwErW454B2x9x-4" vertex="1">
          <mxGeometry x="115" y="90" width="70" height="30" as="geometry" />
        </mxCell>
        <mxCell id="z_mEyN4N-O0lo0nMOTQI-21" value="F.Naci" style="ellipse;whiteSpace=wrap;html=1;align=center;" parent="d9QAcNXBwErW454B2x9x-4" vertex="1">
          <mxGeometry x="195" y="40" width="50" height="20" as="geometry" />
        </mxCell>
        <mxCell id="z_mEyN4N-O0lo0nMOTQI-22" value="Año" style="ellipse;whiteSpace=wrap;html=1;align=center;" parent="d9QAcNXBwErW454B2x9x-4" vertex="1">
          <mxGeometry x="235" width="30" height="20" as="geometry" />
        </mxCell>
        <mxCell id="z_mEyN4N-O0lo0nMOTQI-23" value="Mes" style="ellipse;whiteSpace=wrap;html=1;align=center;" parent="d9QAcNXBwErW454B2x9x-4" vertex="1">
          <mxGeometry x="200" width="30" height="20" as="geometry" />
        </mxCell>
        <mxCell id="z_mEyN4N-O0lo0nMOTQI-24" value="Día" style="ellipse;whiteSpace=wrap;html=1;align=center;" parent="d9QAcNXBwErW454B2x9x-4" vertex="1">
          <mxGeometry x="165" width="30" height="20" as="geometry" />
        </mxCell>
        <mxCell id="z_mEyN4N-O0lo0nMOTQI-25" value="" style="endArrow=none;html=1;rounded=0;exitX=0.5;exitY=1;exitDx=0;exitDy=0;entryX=1;entryY=0;entryDx=0;entryDy=0;" parent="d9QAcNXBwErW454B2x9x-4" source="z_mEyN4N-O0lo0nMOTQI-22" target="z_mEyN4N-O0lo0nMOTQI-21" edge="1">
          <mxGeometry relative="1" as="geometry">
            <mxPoint x="445" as="sourcePoint" />
            <mxPoint x="605" as="targetPoint" />
          </mxGeometry>
        </mxCell>
        <mxCell id="z_mEyN4N-O0lo0nMOTQI-26" value="" style="endArrow=none;html=1;rounded=0;exitX=0.5;exitY=1;exitDx=0;exitDy=0;entryX=0.5;entryY=0;entryDx=0;entryDy=0;" parent="d9QAcNXBwErW454B2x9x-4" source="z_mEyN4N-O0lo0nMOTQI-23" target="z_mEyN4N-O0lo0nMOTQI-21" edge="1">
          <mxGeometry relative="1" as="geometry">
            <mxPoint x="445" as="sourcePoint" />
            <mxPoint x="605" as="targetPoint" />
          </mxGeometry>
        </mxCell>
        <mxCell id="z_mEyN4N-O0lo0nMOTQI-27" value="" style="endArrow=none;html=1;rounded=0;exitX=0.5;exitY=1;exitDx=0;exitDy=0;entryX=0;entryY=0;entryDx=0;entryDy=0;" parent="d9QAcNXBwErW454B2x9x-4" source="z_mEyN4N-O0lo0nMOTQI-24" target="z_mEyN4N-O0lo0nMOTQI-21" edge="1">
          <mxGeometry relative="1" as="geometry">
            <mxPoint x="445" as="sourcePoint" />
            <mxPoint x="605" as="targetPoint" />
          </mxGeometry>
        </mxCell>
        <mxCell id="z_mEyN4N-O0lo0nMOTQI-60" value="Apellidos" style="ellipse;whiteSpace=wrap;html=1;align=center;" parent="d9QAcNXBwErW454B2x9x-4" vertex="1">
          <mxGeometry x="50" y="40" width="50" height="20" as="geometry" />
        </mxCell>
        <mxCell id="z_mEyN4N-O0lo0nMOTQI-61" value="Nombre" style="ellipse;whiteSpace=wrap;html=1;align=center;" parent="d9QAcNXBwErW454B2x9x-4" vertex="1">
          <mxGeometry x="100" y="40" width="50" height="20" as="geometry" />
        </mxCell>
        <mxCell id="z_mEyN4N-O0lo0nMOTQI-62" value="Genero" style="ellipse;whiteSpace=wrap;html=1;align=center;" parent="d9QAcNXBwErW454B2x9x-4" vertex="1">
          <mxGeometry x="150" y="40" width="40" height="20" as="geometry" />
        </mxCell>
        <mxCell id="z_mEyN4N-O0lo0nMOTQI-78" value="&lt;font style=&quot;font-size: 8px;&quot;&gt;Nacionalidad&lt;/font&gt;" style="ellipse;whiteSpace=wrap;html=1;align=center;" parent="d9QAcNXBwErW454B2x9x-4" vertex="1">
          <mxGeometry y="60" width="50" height="20" as="geometry" />
        </mxCell>
        <mxCell id="z_mEyN4N-O0lo0nMOTQI-85" value="&lt;font style=&quot;font-size: 8px;&quot;&gt;Id.Prod&lt;/font&gt;" style="ellipse;whiteSpace=wrap;html=1;align=center;fontStyle=4;" parent="d9QAcNXBwErW454B2x9x-4" vertex="1">
          <mxGeometry x="10" y="90" width="30" height="20" as="geometry" />
        </mxCell>
        <mxCell id="z_mEyN4N-O0lo0nMOTQI-102" value="" style="endArrow=none;html=1;rounded=0;exitX=0.5;exitY=1;exitDx=0;exitDy=0;entryX=0.867;entryY=-0.061;entryDx=0;entryDy=0;entryPerimeter=0;" parent="d9QAcNXBwErW454B2x9x-4" source="z_mEyN4N-O0lo0nMOTQI-21" target="XRtFIheSeocgoj4U0Oa9-6" edge="1">
          <mxGeometry relative="1" as="geometry">
            <mxPoint x="-15" y="-10" as="sourcePoint" />
            <mxPoint x="145" y="-10" as="targetPoint" />
          </mxGeometry>
        </mxCell>
        <mxCell id="z_mEyN4N-O0lo0nMOTQI-103" value="" style="endArrow=none;html=1;rounded=0;exitX=0.5;exitY=1;exitDx=0;exitDy=0;entryX=0.581;entryY=-0.039;entryDx=0;entryDy=0;entryPerimeter=0;" parent="d9QAcNXBwErW454B2x9x-4" source="z_mEyN4N-O0lo0nMOTQI-62" target="XRtFIheSeocgoj4U0Oa9-6" edge="1">
          <mxGeometry relative="1" as="geometry">
            <mxPoint x="-15" y="-10" as="sourcePoint" />
            <mxPoint x="145" y="-10" as="targetPoint" />
          </mxGeometry>
        </mxCell>
        <mxCell id="z_mEyN4N-O0lo0nMOTQI-104" value="" style="endArrow=none;html=1;rounded=0;exitX=0.5;exitY=1;exitDx=0;exitDy=0;entryX=0.25;entryY=0;entryDx=0;entryDy=0;" parent="d9QAcNXBwErW454B2x9x-4" source="z_mEyN4N-O0lo0nMOTQI-61" target="XRtFIheSeocgoj4U0Oa9-6" edge="1">
          <mxGeometry relative="1" as="geometry">
            <mxPoint x="-15" y="-10" as="sourcePoint" />
            <mxPoint x="145" y="-10" as="targetPoint" />
          </mxGeometry>
        </mxCell>
        <mxCell id="z_mEyN4N-O0lo0nMOTQI-105" value="" style="endArrow=none;html=1;rounded=0;exitX=0.5;exitY=1;exitDx=0;exitDy=0;entryX=0;entryY=0;entryDx=0;entryDy=0;" parent="d9QAcNXBwErW454B2x9x-4" source="z_mEyN4N-O0lo0nMOTQI-60" target="XRtFIheSeocgoj4U0Oa9-6" edge="1">
          <mxGeometry relative="1" as="geometry">
            <mxPoint x="-15" y="-10" as="sourcePoint" />
            <mxPoint x="145" y="-10" as="targetPoint" />
          </mxGeometry>
        </mxCell>
        <mxCell id="z_mEyN4N-O0lo0nMOTQI-106" value="" style="endArrow=none;html=1;rounded=0;exitX=1;exitY=1;exitDx=0;exitDy=0;entryX=0;entryY=0.5;entryDx=0;entryDy=0;" parent="d9QAcNXBwErW454B2x9x-4" source="z_mEyN4N-O0lo0nMOTQI-78" target="XRtFIheSeocgoj4U0Oa9-6" edge="1">
          <mxGeometry relative="1" as="geometry">
            <mxPoint x="-15" y="-10" as="sourcePoint" />
            <mxPoint x="145" y="-10" as="targetPoint" />
          </mxGeometry>
        </mxCell>
        <mxCell id="z_mEyN4N-O0lo0nMOTQI-107" value="" style="endArrow=none;html=1;rounded=0;exitX=0.5;exitY=1;exitDx=0;exitDy=0;entryX=0;entryY=0.75;entryDx=0;entryDy=0;" parent="d9QAcNXBwErW454B2x9x-4" source="z_mEyN4N-O0lo0nMOTQI-85" target="XRtFIheSeocgoj4U0Oa9-6" edge="1">
          <mxGeometry relative="1" as="geometry">
            <mxPoint x="-15" y="-10" as="sourcePoint" />
            <mxPoint x="145" y="-10" as="targetPoint" />
          </mxGeometry>
        </mxCell>
        <mxCell id="d9QAcNXBwErW454B2x9x-5" value="" style="endArrow=none;html=1;rounded=0;entryX=0.5;entryY=0;entryDx=0;entryDy=0;" edge="1" parent="1" target="XRtFIheSeocgoj4U0Oa9-14">
          <mxGeometry width="50" height="50" relative="1" as="geometry">
            <mxPoint x="150" y="200" as="sourcePoint" />
            <mxPoint x="350" y="340" as="targetPoint" />
          </mxGeometry>
        </mxCell>
        <mxCell id="d9QAcNXBwErW454B2x9x-6" value="" style="group" vertex="1" connectable="0" parent="1">
          <mxGeometry x="20" y="425" width="285" height="115" as="geometry" />
        </mxCell>
        <mxCell id="XRtFIheSeocgoj4U0Oa9-4" value="&lt;font style=&quot;font-size: 8px;&quot;&gt;Directores&lt;/font&gt;" style="rounded=0;whiteSpace=wrap;html=1;" parent="d9QAcNXBwErW454B2x9x-6" vertex="1">
          <mxGeometry x="115" y="85" width="70" height="30" as="geometry" />
        </mxCell>
        <mxCell id="z_mEyN4N-O0lo0nMOTQI-28" value="F.Naci" style="ellipse;whiteSpace=wrap;html=1;align=center;" parent="d9QAcNXBwErW454B2x9x-6" vertex="1">
          <mxGeometry x="215" y="40" width="50" height="20" as="geometry" />
        </mxCell>
        <mxCell id="z_mEyN4N-O0lo0nMOTQI-29" value="Año" style="ellipse;whiteSpace=wrap;html=1;align=center;" parent="d9QAcNXBwErW454B2x9x-6" vertex="1">
          <mxGeometry x="255" width="30" height="20" as="geometry" />
        </mxCell>
        <mxCell id="z_mEyN4N-O0lo0nMOTQI-30" value="Mes" style="ellipse;whiteSpace=wrap;html=1;align=center;" parent="d9QAcNXBwErW454B2x9x-6" vertex="1">
          <mxGeometry x="220" width="30" height="20" as="geometry" />
        </mxCell>
        <mxCell id="z_mEyN4N-O0lo0nMOTQI-31" value="Día" style="ellipse;whiteSpace=wrap;html=1;align=center;" parent="d9QAcNXBwErW454B2x9x-6" vertex="1">
          <mxGeometry x="185" width="30" height="20" as="geometry" />
        </mxCell>
        <mxCell id="z_mEyN4N-O0lo0nMOTQI-32" value="" style="endArrow=none;html=1;rounded=0;exitX=0.5;exitY=1;exitDx=0;exitDy=0;entryX=1;entryY=0;entryDx=0;entryDy=0;" parent="d9QAcNXBwErW454B2x9x-6" source="z_mEyN4N-O0lo0nMOTQI-29" target="z_mEyN4N-O0lo0nMOTQI-28" edge="1">
          <mxGeometry relative="1" as="geometry">
            <mxPoint x="465" as="sourcePoint" />
            <mxPoint x="625" as="targetPoint" />
          </mxGeometry>
        </mxCell>
        <mxCell id="z_mEyN4N-O0lo0nMOTQI-33" value="" style="endArrow=none;html=1;rounded=0;exitX=0.5;exitY=1;exitDx=0;exitDy=0;entryX=0.5;entryY=0;entryDx=0;entryDy=0;" parent="d9QAcNXBwErW454B2x9x-6" source="z_mEyN4N-O0lo0nMOTQI-30" target="z_mEyN4N-O0lo0nMOTQI-28" edge="1">
          <mxGeometry relative="1" as="geometry">
            <mxPoint x="465" as="sourcePoint" />
            <mxPoint x="625" as="targetPoint" />
          </mxGeometry>
        </mxCell>
        <mxCell id="z_mEyN4N-O0lo0nMOTQI-34" value="" style="endArrow=none;html=1;rounded=0;exitX=0.5;exitY=1;exitDx=0;exitDy=0;entryX=0;entryY=0;entryDx=0;entryDy=0;" parent="d9QAcNXBwErW454B2x9x-6" source="z_mEyN4N-O0lo0nMOTQI-31" target="z_mEyN4N-O0lo0nMOTQI-28" edge="1">
          <mxGeometry relative="1" as="geometry">
            <mxPoint x="465" as="sourcePoint" />
            <mxPoint x="625" as="targetPoint" />
          </mxGeometry>
        </mxCell>
        <mxCell id="z_mEyN4N-O0lo0nMOTQI-63" value="Apellidos" style="ellipse;whiteSpace=wrap;html=1;align=center;" parent="d9QAcNXBwErW454B2x9x-6" vertex="1">
          <mxGeometry x="45" width="50" height="20" as="geometry" />
        </mxCell>
        <mxCell id="z_mEyN4N-O0lo0nMOTQI-64" value="Nombre" style="ellipse;whiteSpace=wrap;html=1;align=center;" parent="d9QAcNXBwErW454B2x9x-6" vertex="1">
          <mxGeometry x="95" width="50" height="20" as="geometry" />
        </mxCell>
        <mxCell id="z_mEyN4N-O0lo0nMOTQI-65" value="Genero" style="ellipse;whiteSpace=wrap;html=1;align=center;" parent="d9QAcNXBwErW454B2x9x-6" vertex="1">
          <mxGeometry x="145" width="40" height="20" as="geometry" />
        </mxCell>
        <mxCell id="z_mEyN4N-O0lo0nMOTQI-80" value="&lt;font style=&quot;font-size: 8px;&quot;&gt;Nacionalidad&lt;/font&gt;" style="ellipse;whiteSpace=wrap;html=1;align=center;" parent="d9QAcNXBwErW454B2x9x-6" vertex="1">
          <mxGeometry y="20" width="50" height="20" as="geometry" />
        </mxCell>
        <mxCell id="z_mEyN4N-O0lo0nMOTQI-83" value="&lt;span style=&quot;font-size: 8px;&quot;&gt;Id. dir&lt;/span&gt;" style="ellipse;whiteSpace=wrap;html=1;align=center;fontStyle=4;" parent="d9QAcNXBwErW454B2x9x-6" vertex="1">
          <mxGeometry x="5" y="50" width="30" height="20" as="geometry" />
        </mxCell>
        <mxCell id="z_mEyN4N-O0lo0nMOTQI-110" value="" style="endArrow=none;html=1;rounded=0;exitX=0;exitY=1;exitDx=0;exitDy=0;entryX=1;entryY=0;entryDx=0;entryDy=0;" parent="d9QAcNXBwErW454B2x9x-6" source="z_mEyN4N-O0lo0nMOTQI-28" target="XRtFIheSeocgoj4U0Oa9-4" edge="1">
          <mxGeometry relative="1" as="geometry">
            <mxPoint x="-175" y="-220" as="sourcePoint" />
            <mxPoint x="-15" y="-220" as="targetPoint" />
          </mxGeometry>
        </mxCell>
        <mxCell id="z_mEyN4N-O0lo0nMOTQI-111" value="" style="endArrow=none;html=1;rounded=0;exitX=0.5;exitY=1;exitDx=0;exitDy=0;entryX=0.61;entryY=0.039;entryDx=0;entryDy=0;entryPerimeter=0;" parent="d9QAcNXBwErW454B2x9x-6" source="z_mEyN4N-O0lo0nMOTQI-65" target="XRtFIheSeocgoj4U0Oa9-4" edge="1">
          <mxGeometry relative="1" as="geometry">
            <mxPoint x="-175" y="-220" as="sourcePoint" />
            <mxPoint x="159" y="80" as="targetPoint" />
          </mxGeometry>
        </mxCell>
        <mxCell id="z_mEyN4N-O0lo0nMOTQI-112" value="" style="endArrow=none;html=1;rounded=0;exitX=0.5;exitY=1;exitDx=0;exitDy=0;entryX=0.39;entryY=-0.006;entryDx=0;entryDy=0;entryPerimeter=0;" parent="d9QAcNXBwErW454B2x9x-6" source="z_mEyN4N-O0lo0nMOTQI-64" target="XRtFIheSeocgoj4U0Oa9-4" edge="1">
          <mxGeometry relative="1" as="geometry">
            <mxPoint x="-175" y="-220" as="sourcePoint" />
            <mxPoint x="-15" y="-220" as="targetPoint" />
          </mxGeometry>
        </mxCell>
        <mxCell id="z_mEyN4N-O0lo0nMOTQI-113" value="" style="endArrow=none;html=1;rounded=0;exitX=0.5;exitY=1;exitDx=0;exitDy=0;entryX=0.25;entryY=0;entryDx=0;entryDy=0;" parent="d9QAcNXBwErW454B2x9x-6" source="z_mEyN4N-O0lo0nMOTQI-63" target="XRtFIheSeocgoj4U0Oa9-4" edge="1">
          <mxGeometry relative="1" as="geometry">
            <mxPoint x="-175" y="-220" as="sourcePoint" />
            <mxPoint x="-15" y="-220" as="targetPoint" />
          </mxGeometry>
        </mxCell>
        <mxCell id="z_mEyN4N-O0lo0nMOTQI-114" value="" style="endArrow=none;html=1;rounded=0;exitX=1;exitY=0.5;exitDx=0;exitDy=0;entryX=0;entryY=0;entryDx=0;entryDy=0;" parent="d9QAcNXBwErW454B2x9x-6" source="z_mEyN4N-O0lo0nMOTQI-80" target="XRtFIheSeocgoj4U0Oa9-4" edge="1">
          <mxGeometry relative="1" as="geometry">
            <mxPoint x="-175" y="-220" as="sourcePoint" />
            <mxPoint x="-15" y="-220" as="targetPoint" />
          </mxGeometry>
        </mxCell>
        <mxCell id="z_mEyN4N-O0lo0nMOTQI-115" value="" style="endArrow=none;html=1;rounded=0;exitX=1;exitY=0.5;exitDx=0;exitDy=0;entryX=0;entryY=0.5;entryDx=0;entryDy=0;" parent="d9QAcNXBwErW454B2x9x-6" source="z_mEyN4N-O0lo0nMOTQI-83" target="XRtFIheSeocgoj4U0Oa9-4" edge="1">
          <mxGeometry relative="1" as="geometry">
            <mxPoint x="-175" y="-220" as="sourcePoint" />
            <mxPoint x="-15" y="-220" as="targetPoint" />
          </mxGeometry>
        </mxCell>
        <mxCell id="d9QAcNXBwErW454B2x9x-7" value="" style="endArrow=none;html=1;rounded=0;entryX=0.5;entryY=1;entryDx=0;entryDy=0;exitX=0.5;exitY=0;exitDx=0;exitDy=0;" edge="1" parent="1" source="XRtFIheSeocgoj4U0Oa9-15" target="XRtFIheSeocgoj4U0Oa9-1">
          <mxGeometry width="50" height="50" relative="1" as="geometry">
            <mxPoint x="300" y="440" as="sourcePoint" />
            <mxPoint x="350" y="390" as="targetPoint" />
            <Array as="points">
              <mxPoint x="370" y="340" />
            </Array>
          </mxGeometry>
        </mxCell>
        <mxCell id="d9QAcNXBwErW454B2x9x-8" value="" style="endArrow=none;html=1;rounded=0;entryX=0.5;entryY=1;entryDx=0;entryDy=0;exitX=1;exitY=0.5;exitDx=0;exitDy=0;" edge="1" parent="1" source="XRtFIheSeocgoj4U0Oa9-4" target="XRtFIheSeocgoj4U0Oa9-15">
          <mxGeometry width="50" height="50" relative="1" as="geometry">
            <mxPoint x="300" y="440" as="sourcePoint" />
            <mxPoint x="350" y="390" as="targetPoint" />
            <Array as="points">
              <mxPoint x="370" y="525" />
            </Array>
          </mxGeometry>
        </mxCell>
        <mxCell id="d9QAcNXBwErW454B2x9x-9" value="" style="endArrow=none;html=1;rounded=0;entryX=0.653;entryY=0.998;entryDx=0;entryDy=0;entryPerimeter=0;exitX=0.5;exitY=0;exitDx=0;exitDy=0;" edge="1" parent="1" source="XRtFIheSeocgoj4U0Oa9-11" target="XRtFIheSeocgoj4U0Oa9-1">
          <mxGeometry width="50" height="50" relative="1" as="geometry">
            <mxPoint x="300" y="540" as="sourcePoint" />
            <mxPoint x="350" y="490" as="targetPoint" />
          </mxGeometry>
        </mxCell>
        <mxCell id="d9QAcNXBwErW454B2x9x-11" value="" style="endArrow=none;html=1;rounded=0;entryX=0.5;entryY=1;entryDx=0;entryDy=0;exitX=0.5;exitY=0;exitDx=0;exitDy=0;" edge="1" parent="1" source="XRtFIheSeocgoj4U0Oa9-7" target="XRtFIheSeocgoj4U0Oa9-11">
          <mxGeometry width="50" height="50" relative="1" as="geometry">
            <mxPoint x="300" y="540" as="sourcePoint" />
            <mxPoint x="350" y="490" as="targetPoint" />
          </mxGeometry>
        </mxCell>
        <mxCell id="d9QAcNXBwErW454B2x9x-13" value="" style="endArrow=none;html=1;rounded=0;entryX=1;entryY=0.5;entryDx=0;entryDy=0;exitX=0;exitY=0.5;exitDx=0;exitDy=0;" edge="1" parent="1" source="XRtFIheSeocgoj4U0Oa9-13" target="XRtFIheSeocgoj4U0Oa9-7">
          <mxGeometry width="50" height="50" relative="1" as="geometry">
            <mxPoint x="300" y="540" as="sourcePoint" />
            <mxPoint x="350" y="490" as="targetPoint" />
          </mxGeometry>
        </mxCell>
        <mxCell id="d9QAcNXBwErW454B2x9x-14" value="" style="endArrow=none;html=1;rounded=0;entryX=1;entryY=0.5;entryDx=0;entryDy=0;exitX=0;exitY=0.75;exitDx=0;exitDy=0;" edge="1" parent="1" source="XRtFIheSeocgoj4U0Oa9-8" target="XRtFIheSeocgoj4U0Oa9-13">
          <mxGeometry width="50" height="50" relative="1" as="geometry">
            <mxPoint x="300" y="540" as="sourcePoint" />
            <mxPoint x="350" y="490" as="targetPoint" />
            <Array as="points">
              <mxPoint x="740" y="590" />
            </Array>
          </mxGeometry>
        </mxCell>
        <mxCell id="d9QAcNXBwErW454B2x9x-15" value="" style="endArrow=none;html=1;rounded=0;entryX=0.5;entryY=1;entryDx=0;entryDy=0;exitX=0;exitY=0.75;exitDx=0;exitDy=0;" edge="1" parent="1" source="XRtFIheSeocgoj4U0Oa9-10" target="XRtFIheSeocgoj4U0Oa9-13">
          <mxGeometry width="50" height="50" relative="1" as="geometry">
            <mxPoint x="300" y="540" as="sourcePoint" />
            <mxPoint x="350" y="490" as="targetPoint" />
            <Array as="points">
              <mxPoint x="700" y="760" />
            </Array>
          </mxGeometry>
        </mxCell>
      </root>
    </mxGraphModel>
  </diagram>
</mxfile>
